<?xml version="1.0" encoding="UTF-8"?>
<svg xmlns="http://www.w3.org/2000/svg" xmlns:xlink="http://www.w3.org/1999/xlink" width="3000" height="3000" viewBox="0 0 3000 3000">
<rect x="-300" y="-300" width="3600" height="3600" fill="rgb(100%, 100%, 100%)" fill-opacity="1"/>
<path fill="none" stroke-width="373.038" stroke-linecap="butt" stroke-linejoin="round" stroke="rgb(0%, 0%, 0%)" stroke-opacity="1" stroke-miterlimit="4" d="M 16271.09375 23499.414062 L 15218.789062 23191.601562 L 14911.015625 22139.414062 L 14603.28125 23191.601562 L 13551.015625 23499.414062 L 14603.28125 23807.1875 L 14911.015625 24859.414062 L 15218.789062 23807.1875 Z M 16271.09375 23499.414062 " transform="matrix(0.1, 0, 0, -0.1, 0, 3000)"/>
<path fill="none" stroke-width="373.038" stroke-linecap="butt" stroke-linejoin="round" stroke="rgb(0%, 0%, 0%)" stroke-opacity="1" stroke-miterlimit="4" d="M 24845.585938 19647.304688 L 23793.28125 19339.492188 L 23485.507812 18287.304688 L 23177.8125 19339.492188 L 22125.507812 19647.304688 L 23177.8125 19955 L 23485.507812 21007.304688 L 23793.28125 19955 Z M 24845.585938 19647.304688 " transform="matrix(0.1, 0, 0, -0.1, 0, 3000)"/>
<path fill="none" stroke-width="373.038" stroke-linecap="butt" stroke-linejoin="round" stroke="rgb(0%, 0%, 0%)" stroke-opacity="1" stroke-miterlimit="4" d="M 7874.570312 19647.304688 L 6822.304688 19339.492188 L 6514.570312 18287.304688 L 6206.796875 19339.492188 L 5154.53125 19647.304688 L 6206.796875 19955 L 6514.570312 21007.304688 L 6822.304688 19955 Z M 7874.570312 19647.304688 " transform="matrix(0.1, 0, 0, -0.1, 0, 3000)"/>
<path fill="none" stroke-width="1088.47" stroke-linecap="butt" stroke-linejoin="round" stroke="rgb(0%, 0%, 0%)" stroke-opacity="1" stroke-miterlimit="4" d="M 13064.199646 -7971.549547 L 23642.796307 -15794.997114 L 25445.582999 -14570.384451 L 13948.61964 -4910.224449 Z M 13064.199646 -7971.549547 " transform="matrix(0.0865327, 0, 0, 0.113467, 0, 3000)"/>
<path fill="none" stroke-width="1088.47" stroke-linecap="butt" stroke-linejoin="round" stroke="rgb(0%, 0%, 0%)" stroke-opacity="1" stroke-miterlimit="4" d="M 13064.199646 -7971.549547 L 8540.259564 -9740.30445 L 19356.889433 -17325.590811 L 23642.796307 -15794.997114 " transform="matrix(0.0865327, 0, 0, 0.113467, 0, 3000)"/>
<path fill="none" stroke-width="1088.47" stroke-linecap="butt" stroke-linejoin="miter" stroke="rgb(0%, 0%, 0%)" stroke-opacity="1" stroke-miterlimit="4" d="M 8540.259564 -9740.30445 L 7894.008204 -7733.457195 L 13948.61964 -4910.224449 " transform="matrix(0.0865327, 0, 0, 0.113467, 0, 3000)"/>
<path fill="none" stroke-width="1088.47" stroke-linecap="butt" stroke-linejoin="round" stroke="rgb(0%, 0%, 0%)" stroke-opacity="1" stroke-miterlimit="4" d="M 19799.09943 -9570.238483 L 23438.709803 -8039.575934 L 26670.102025 -9808.365263 L 27860.584062 -8073.589127 L 23268.705429 -5352.430387 L 17758.279529 -7699.444001 " transform="matrix(0.0865327, 0, 0, 0.113467, 0, 3000)"/>
<path fill="none" stroke-width="1088.47" stroke-linecap="butt" stroke-linejoin="round" stroke="rgb(0%, 0%, 0%)" stroke-opacity="1" stroke-miterlimit="4" d="M 21942.12058 -11815.212518 L 26670.102025 -9808.365263 " transform="matrix(0.0865327, 0, 0, 0.113467, 0, 3000)"/>
<path fill="none" stroke-width="1088.47" stroke-linecap="butt" stroke-linejoin="miter" stroke="rgb(0%, 0%, 0%)" stroke-opacity="1" stroke-miterlimit="4" d="M 23438.709803 -8039.575934 L 23268.615145 -5352.430387 " transform="matrix(0.0865327, 0, 0, 0.113467, 0, 3000)"/>
<path fill="none" stroke-width="1088.47" stroke-linecap="butt" stroke-linejoin="round" stroke="rgb(0%, 0%, 0%)" stroke-opacity="1" stroke-miterlimit="4" d="M 12349.919452 -12393.505656 L 8574.296552 -14434.400531 L 12758.092461 -16067.10266 L 15649.295368 -14808.51123 " transform="matrix(0.0865327, 0, 0, 0.113467, 0, 3000)"/>
<path fill="none" stroke-width="1088.47" stroke-linecap="butt" stroke-linejoin="round" stroke="rgb(0%, 0%, 0%)" stroke-opacity="1" stroke-miterlimit="4" d="M 8574.296552 -14434.400531 L 7315.740538 -12903.703555 L 10479.103925 -11373.006579 " transform="matrix(0.0865327, 0, 0, 0.113467, 0, 3000)"/>
</svg>
