<?xml version="1.0" encoding="UTF-8" standalone="no"?>
<!-- Uploaded to: SVG Repo, www.svgrepo.com, Generator: SVG Repo Mixer Tools -->

<svg
   fill="#000000"
   width="800px"
   height="800px"
   viewBox="0 0 512 512"
   version="1.1"
   id="svg4664"
   sodipodi:docname="water-svgrepo-com.svg"
   inkscape:version="1.2.1 (9c6d41e410, 2022-07-14)"
   xmlns:inkscape="http://www.inkscape.org/namespaces/inkscape"
   xmlns:sodipodi="http://sodipodi.sourceforge.net/DTD/sodipodi-0.dtd"
   xmlns="http://www.w3.org/2000/svg"
   xmlns:svg="http://www.w3.org/2000/svg">
  <defs
     id="defs4668" />
  <sodipodi:namedview
     id="namedview4666"
     pagecolor="#ffffff"
     bordercolor="#666666"
     borderopacity="1.0"
     inkscape:showpageshadow="2"
     inkscape:pageopacity="0.0"
     inkscape:pagecheckerboard="0"
     inkscape:deskcolor="#d1d1d1"
     showgrid="false"
     inkscape:zoom="1.03625"
     inkscape:cx="359.95175"
     inkscape:cy="399.51749"
     inkscape:window-width="1920"
     inkscape:window-height="1009"
     inkscape:window-x="-8"
     inkscape:window-y="-8"
     inkscape:window-maximized="1"
     inkscape:current-layer="svg4664" />
  <title
     id="title4660">ionicons-v5-r</title>
  <path
     d="M265.12,60.12a12,12,0,0,0-18.23,0C215.23,97.15,112,225.17,112,320c0,88.37,55.64,144,144,144s144-55.63,144-144C400,225.17,296.77,97.15,265.12,60.12ZM272,412a12,12,0,0,1-11.34-16,11.89,11.89,0,0,1,11.41-8A60.06,60.06,0,0,0,332,328.07a11.89,11.89,0,0,1,8-11.41A12,12,0,0,1,356,328,84.09,84.09,0,0,1,272,412Z"
     id="path4662"
     style="fill:#ffffff;fill-opacity:1" />
</svg>
