<?xml version="1.0" encoding="UTF-8" standalone="no"?>
<!-- Uploaded to: SVG Repo, www.svgrepo.com, Generator: SVG Repo Mixer Tools -->

<svg
   fill="#000000"
   width="800px"
   height="800px"
   viewBox="0 0 32 32"
   version="1.1"
   id="svg6"
   sodipodi:docname="broken-bone-svgrepo-com.svg"
   inkscape:version="1.2.1 (9c6d41e410, 2022-07-14)"
   xmlns:inkscape="http://www.inkscape.org/namespaces/inkscape"
   xmlns:sodipodi="http://sodipodi.sourceforge.net/DTD/sodipodi-0.dtd"
   xmlns="http://www.w3.org/2000/svg"
   xmlns:svg="http://www.w3.org/2000/svg">
  <defs
     id="defs10" />
  <sodipodi:namedview
     id="namedview8"
     pagecolor="#ffffff"
     bordercolor="#666666"
     borderopacity="1.0"
     inkscape:showpageshadow="2"
     inkscape:pageopacity="0.0"
     inkscape:pagecheckerboard="0"
     inkscape:deskcolor="#d1d1d1"
     showgrid="false"
     inkscape:zoom="1.03625"
     inkscape:cx="359.95175"
     inkscape:cy="399.51749"
     inkscape:window-width="1920"
     inkscape:window-height="1009"
     inkscape:window-x="-8"
     inkscape:window-y="-8"
     inkscape:window-maximized="1"
     inkscape:current-layer="svg6" />
  <title
     id="title2">broken-bone</title>
  <path
     d="m 20.889,17.718 -3.247,-1.7 0.361,2.165 -2.499,-0.851 c 4.393,3.086 7.374,6.972 10.101,11.905 L 24.926147,25.592572 30.295,24.547 C 26.322,22.849 22.929,20.635 20.889,17.718 Z M 1.05,19.081 7.8754644,20.004978 6.007,23.877 c 2.137,-2.412 4.677,-4.651 7.347,-5.714 l 0.792,-1.762 -2.047,0.391 3.794014,-3.732 c -3.721,2.619 -11.7737872,4.879996 -11.7737872,4.879996 L 1.049,19.08 Z M 17.696,12.792 20.413,6.314 18.811,1.269 16.74,9.678 Z m 8.656,5.493 -7.51,-3.853 6.983,0.538 z M 15.851,11.897 10.066,2.712 10.193,9.619 Z m -1.559,7.044 -3.76,4.946 2.918,-0.643 z m 5.186,-5.79 5.321,-2.434 -3.478,-0.098 z m -4.003,5.847 1.185,7.387 2.272,-1.224 z"
     id="path4"
     sodipodi:nodetypes="cccccccscccccccccccccccccccccccccccccccccccc"
     style="fill:#ffffff;fill-opacity:1" />
</svg>
